<svg xmlns="http://www.w3.org/2000/svg" viewBox="0 0 210 60"><defs><style>.cls-1{fill:none;}.cls-2{fill:#fff;}</style></defs><title>Element 1</title><g id="Ebene_2" data-name="Ebene 2"><g id="Ebene_1-2" data-name="Ebene 1"><rect class="cls-1" width="210" height="60"/><path class="cls-2" d="M46.75,32.71S44.48,49.58,27.18,49.58c-10.42,0-19.66-6.8-19.66-19.82,0-17.92,16.61-19.34,16.61-19.34H55.06l-9,9.28H27.28c-5.89,0-9.69,5.41-9.88,10.24a9.65,9.65,0,0,0,9.69,9.67c8,0,8.93-5.4,8.93-5.4H24.9V25.4H46.75Z"/><path class="cls-2" d="M104.79,25.52l-.1,8.13a17.6,17.6,0,0,1-2.93,9.7c-4.06,5.75-11.88,6.32-11.88,6.32H51.1V20.24l10.24-9.91-.06,29.16,27.64.1a6.2,6.2,0,0,0,3.49-1.7,5.45,5.45,0,0,0,1.19-3.37l-27.42,0V26.35s-.27-6.58,6.61-12.24C76.73,10.88,83,10.33,83,10.33h26.8l-9.43,9.29H84.06s-3.81,0-5.31,2.22a8.09,8.09,0,0,0-1.37,3.66Z"/><path class="cls-2" d="M119,39.09c2,0,3.21,1,3.21,2.57A2.22,2.22,0,0,1,120.41,44a2.48,2.48,0,0,1,2.27,2.6c0,1.75-1.34,2.79-3.58,2.79h-4.26V39.09ZM116,43.53h3c1.33,0,2.11-.6,2.11-1.68s-.78-1.63-2.11-1.63h-3Zm0,4.73h3c1.62,0,2.55-.66,2.55-1.84s-.94-1.78-2.55-1.78h-3Z"/><path class="cls-2" d="M127.14,40.22V43.6h5v1.13h-5v3.53h5.79v1.12H126V39.09h6.74v1.13Z"/><path class="cls-2" d="M141,46.1l-.67,0h-2.64v3.25h-1.14V39.09h3.78c2.48,0,3.92,1.26,3.92,3.45A3.22,3.22,0,0,1,142,45.88l2.33,3.5H143ZM140.3,45c1.8,0,2.83-.82,2.83-2.42s-1-2.35-2.83-2.35h-2.64V45Z"/><path class="cls-2" d="M153.7,48.26v1.12h-5.49V39.09h1.13v9.17Z"/><path class="cls-2" d="M157,49.38V39.09h1.14V49.38Z"/><path class="cls-2" d="M169.62,49.38l-6-8.26v8.26h-1.14V39.09h1.18l6,8.28V39.09h1.12V49.38Z"/><path class="cls-2" d="M123.59,11.76l-1,2.18A8.18,8.18,0,0,0,119,12.8c-.72,0-1.21.27-1.21.8,0,1.9,5.8.82,5.8,4.78,0,2.19-1.94,3.35-4.39,3.35a8.18,8.18,0,0,1-5-1.75l1.08-2.15a6.84,6.84,0,0,0,4,1.65c.88,0,1.43-.33,1.43-1,0-1.94-5.8-.78-5.8-4.67,0-2,1.74-3.31,4.37-3.31A8.23,8.23,0,0,1,123.59,11.76Z"/><path class="cls-2" d="M129.92,10.67c2.8,0,4.42,1.38,4.42,3.82s-1.61,4.06-4.42,4.06h-2v3.09h-2.79v-11Zm-2,5.69h1.85c1.22,0,1.93-.61,1.93-1.77s-.7-1.72-1.93-1.72h-1.85Z"/><path class="cls-2" d="M140.77,18.55h-2.19v3.09h-2.79v-11h4.9c2.9,0,4.56,1.38,4.56,3.82a3.66,3.66,0,0,1-2,3.53l2.31,3.62H142.4Zm-.08-2.19a1.67,1.67,0,0,0,1.91-1.77c0-1.14-.71-1.72-1.91-1.72h-2.12v3.49Z"/><path class="cls-2" d="M149.62,19.61l-.8,2H146l4.73-11h2.87l4.62,11h-3l-.78-2ZM152,13.44l-1.6,4.06h3.17Z"/><path class="cls-2" d="M168.45,12.42l-1.61,1.91a3.76,3.76,0,0,0-2.76-1.42A3.06,3.06,0,0,0,161,16.09a3.08,3.08,0,0,0,3.06,3.23A4.12,4.12,0,0,0,166.84,18l1.63,1.72a6.62,6.62,0,0,1-4.53,2,5.6,5.6,0,1,1,.1-11.19A6.37,6.37,0,0,1,168.45,12.42Z"/><path class="cls-2" d="M177.07,21.64V17.37h-4.54v4.26h-2.79v-11h2.79v4.51h4.54V10.67h2.79v11Z"/><path class="cls-2" d="M184.83,12.86V15h5.23v2.19h-5.23v2.21h6v2.19H182v-11h8.59v2.19Z"/><path class="cls-2" d="M200.27,21.64l-5-6.75v6.75H192.6v-11h2.46l5.06,6.77V10.67h2.6v11Z"/><path class="cls-2" d="M118.12,33.67h6v2.21h-9.68V34.09l5.87-7H114.6V24.91H124v1.79Z"/><path class="cls-2" d="M128.41,27.1v2.18h5.23v2.19h-5.23v2.21h6v2.19h-8.76v-11h8.58V27.1Z"/><path class="cls-2" d="M143.84,35.88l-5-6.75v6.75h-2.62v-11h2.46l5.06,6.77V24.91h2.6v11Z"/><path class="cls-2" d="M153.57,27.15v8.73h-2.79V27.15h-3.27V24.89h9.37v2.26Z"/><path class="cls-2" d="M163,32.79h-2.19v3.09h-2.79v-11H163c2.9,0,4.56,1.38,4.56,3.82a3.65,3.65,0,0,1-2,3.53l2.31,3.62h-3.17ZM163,30.6a1.67,1.67,0,0,0,1.91-1.77c0-1.14-.71-1.72-1.91-1.72h-2.11v3.5Z"/><path class="cls-2" d="M179.28,31.27c0,2.9-1.93,4.73-5,4.73s-5.06-1.83-5.06-4.73V24.91H172v6.36a2.21,2.21,0,0,0,2.29,2.4,2.16,2.16,0,0,0,2.21-2.4V24.91h2.77Z"/><path class="cls-2" d="M190.87,35.88V28.75l-2.63,6H186.4l-2.63-6v7.13h-2.49v-11h3.06l3,6.53,3-6.53h3v11Z"/></g></g></svg>